<svg id="Layer_1" enable-background="new 0 0 68 68" height="512" viewBox="0 0 68 68" width="512" xmlns="http://www.w3.org/2000/svg"><g><g><path d="m63.581028 13.0225277v2.7559538h-60.7964907v-2.7559538c0-6.090549 4.9332643-11.0238132 11.0238132-11.0238132h38.748867c6.0905486-.0000001 11.0238105 4.9332642 11.0238105 11.0238132z" fill="#33527d"/><path d="m63.5856171 15.7823372v30.7493744c0 6.0985718-4.9398994 11.0291977-11.028965 11.0291977h-38.7483015c-6.0890656 0-11.0192251-4.9306259-11.0192251-11.0291977v-30.7493744z" fill="#e5e8ef"/><path d="m63.581028 46.5353508v3.2511635c0 6.0905495-4.9332619 11.0238152-11.0238113 11.0238152h-38.748867c-6.090549 0-11.0238132-4.9332657-11.0238132-11.0238152v-3.2511635c0 6.0905495 4.9332643 11.0238113 11.0238132 11.0238113h38.748867c6.0905494 0 11.0238113-4.9332618 11.0238113-11.0238113z" fill="#cdd4df"/><path d="m13.8784857 8.8885975c0 1.1657476-.9232292 2.1132879-2.0889759 2.1132879s-2.1126948-.9475403-2.1126948-2.1132879.9469471-2.1132875 2.1126948-2.1132875 2.0889759.9475403 2.0889759 2.1132875z" fill="#4cc66e"/><path d="m20.4477291 8.8885975c0 1.1657476-.9475403 2.1132879-2.0889759 2.1132879-1.1657486 0-2.1132889-.9475403-2.1132889-2.1132879s.9475403-2.1132875 2.1132889-2.1132875c1.1414356 0 2.0889759.9475403 2.0889759 2.1132875z" fill="#ffbe00"/><path d="m27.0163784 8.8885975c0 1.1657476-.9475403 2.1132879-2.0883827 2.1132879-1.1663399 0-2.113287-.9475403-2.113287-2.1132879s.9469471-2.1132875 2.113287-2.1132875c1.1408424 0 2.0883827.9475403 2.0883827 2.1132875z" fill="#b244f1"/><g fill="#adb9ca"><path d="m19.8878574 23.3263969v6.9755802c0 .8942566-.7231903 1.6176357-1.6176357 1.6176357h-6.975771c-.8942566 0-1.6176357-.7233791-1.6176357-1.6176357v-6.9755802c0-.8866615.7233791-1.6176357 1.6176357-1.6176357h6.975771c.8944454 0 1.6176357.7309742 1.6176357 1.6176357z"/><path d="m57.2863197 24.2907829v11.1342163c0 1.4273872-1.1543312 2.5820236-2.5820236 2.5820236h-27.2067299c-1.4273853 0-2.5820217-1.1546364-2.5820217-2.5820236v-11.1342163c0-1.4152622 1.1546364-2.5820217 2.5820217-2.5820217h27.2067299c1.4276924 0 2.5820236 1.1667595 2.5820236 2.5820217z"/><path d="m19.8878574 43.0475616v6.9755784c0 .8942566-.7231903 1.6176376-1.6176357 1.6176376h-6.975771c-.8942566 0-1.6176357-.723381-1.6176357-1.6176376v-6.9755783c0-.8866615.7233791-1.6176376 1.6176357-1.6176376h6.975771c.8944454-.0000001 1.6176357.730976 1.6176357 1.6176375z"/><path d="m19.8892822 36.6703987v.0076332c0 .7347221-.5938854 1.3289909-1.3288002 1.3289909h-7.5561008c-.7347231 0-1.32899-.5942688-1.32899-1.3289909v-.0076332c0-.734726.5942669-1.3366241 1.32899-1.3366241h7.5561008c.7349148 0 1.3288002.6018982 1.3288002 1.3366241z"/><path d="m35.1294327 44.1031723v.0076332c0 .7347221-.5938835 1.3289909-1.3287964 1.3289909h-7.5561028c-.7347221 0-1.328989-.5942688-1.328989-1.3289909v-.0076332c0-.7347221.5942669-1.3366241 1.328989-1.3366241h7.5561028c.7349129 0 1.3287964.601902 1.3287964 1.3366241z"/><path d="m48.1440887 44.1031723v.0076332c0 .7347221-.5938873 1.3289909-1.3288002 1.3289909h-7.5560989c-.734726 0-1.3289909-.5942688-1.3289909-1.3289909v-.0076332c0-.7347221.594265-1.3366241 1.3289909-1.3366241h7.5560989c.7349129 0 1.3288002.601902 1.3288002 1.3366241z"/><path d="m57.2863197 44.1031723v.0076332c0 .7347221-.5938835 1.3289909-1.3288002 1.3289909h-3.6836777c-.7347221 0-1.3289909-.5942688-1.3289909-1.3289909v-.0076332c0-.7347221.5942688-1.3366241 1.3289909-1.3366241h3.6836777c.7349167 0 1.3288002.601902 1.3288002 1.3366241z"/><path d="m31.2570133 50.3041534v.0076332c0 .7347221-.5938854 1.3289909-1.3288002 1.3289909h-3.6836796c-.7347221 0-1.328989-.5942688-1.328989-1.3289909v-.0076332c0-.7347221.5942669-1.3366241 1.328989-1.3366241h3.6836796c.7349148 0 1.3288002.601902 1.3288002 1.3366241z"/><path d="m40.3600426 50.3041534v.0076332c0 .7347221-.5938873 1.3289909-1.3288002 1.3289909h-3.6836777c-.734726 0-1.3289909-.5942688-1.3289909-1.3289909v-.0076332c0-.7347221.594265-1.3366241 1.3289909-1.3366241h3.6836777c.7349128 0 1.3288002.601902 1.3288002 1.3366241z"/><path d="m49.4630737 50.3041534v.0076332c0 .7347221-.5938873 1.3289909-1.3288002 1.3289909h-3.6836815c-.7347221 0-1.3289909-.5942688-1.3289909-1.3289909v-.0076332c0-.7347221.5942688-1.3366241 1.3289909-1.3366241h3.6836815c.7349129 0 1.3288002.601902 1.3288002 1.3366241z"/></g></g><g><g><path d="m20.359 35.997h40.37v14.272h-40.37z" fill="#008732" transform="matrix(.707 -.707 .707 .707 -18.625 41.301)"/><path d="m17.836 37.042h40.37v7.136h-40.37z" fill="#4cc66e" transform="matrix(.707 -.707 .707 .707 -17.579 38.778)"/><path d="m20.359 40.627h40.37v5.011h-40.37z" fill="#14a142" transform="matrix(.707 -.707 .707 .707 -18.625 41.301)"/><path d="m54.463 20.872h2.411v14.272h-2.411z" fill="#e5e8ef" transform="matrix(.707 -.707 .707 .707 -3.5 47.566)"/><path d="m51.4754219 22.10952 2.5337143-2.5336056c1.4862747-1.486208 3.8959846-1.4861698 5.3822327.0000858l4.7094154 4.7094364c1.4862518 1.4862576 1.4862366 3.8959179-.0000381 5.3821259l-2.5337181 2.5336056z" fill="#b244f1"/><path d="m59.3893814 19.5746918 3.4948692 3.4945221c-1.4825668-1.4822178-3.8955994-1.4822521-5.3781853-.0000782l-2.5350876 2.534977-3.4945183-3.4945221 2.5350876-2.534977c1.4822389-1.4823494 3.8956185-1.4823151 5.3778344.0000782z" fill="#8d30d6"/><path d="m31.3159428 62.450882-6.6456738 2.1913299-5.6356754-5.635849 2.1913299-6.6453247z" fill="#ffd80c"/><path d="m19.0352802 59.0059357-1.2330418 3.743618c-.6351814 1.9283791 1.194973 3.7585411 3.1234035 3.1234169l3.7437248-1.2329254z" fill="#435e88"/></g></g></g></svg>