<svg id="Layer_2" height="512" viewBox="0 0 32 32" width="512" xmlns="http://www.w3.org/2000/svg"><path d="m29.697 14.908c-.174-.505-.533-.913-1.014-1.147l-1.798-.877c-.48-.235-1.023-.268-1.527-.094-.506.174-.913.534-1.146 1.014l-5.338 10.937c-.352.719-.402 1.533-.142 2.293l.651 1.891c.143.415.53.675.945.675.107 0 .218-.018.325-.055l1.891-.65c.757-.26 1.368-.8 1.721-1.521l5.338-10.939c.234-.48.268-1.022.094-1.527z" fill="#017ea7"/><path d="m22.414 12.927c.469-.959 1.282-1.68 2.293-2.028.423-.146.859-.202 1.293-.204v-5.695c0-1.654-1.346-3-3-3h-16c-1.654 0-3 1.346-3 3v20c0 1.654 1.346 3 3 3h9.949l-.108-.314c-.435-1.269-.35-2.625.237-3.824zm-14.414-4.927h12c.553 0 1 .448 1 1s-.447 1-1 1h-12c-.553 0-1-.448-1-1s.447-1 1-1zm0 4h11c.553 0 1 .448 1 1s-.447 1-1 1h-11c-.553 0-1-.448-1-1s.447-1 1-1zm7 10h-7c-.553 0-1-.448-1-1s.447-1 1-1h7c.553 0 1 .448 1 1s-.447 1-1 1zm-7-4c-.553 0-1-.448-1-1s.447-1 1-1h9c.553 0 1 .448 1 1s-.447 1-1 1z" fill="#7bd0e6"/></svg>