<svg id="Layer_1" enable-background="new 0 0 512 512" height="512" viewBox="0 0 512 512" width="512" xmlns="http://www.w3.org/2000/svg"><g><path d="m472.019 129.337-92.404-95.893c-36.289-21.25-78.525-33.444-123.615-33.444-135.309 0-244.999 109.69-244.999 244.999s109.69 244.999 244.999 244.999 244.999-109.69 244.999-244.999c0-41.833-10.495-81.211-28.98-115.662z" fill="#3b3868"/><path d="m184.652 396.133c7.763 4.482 17.213 4.804 25.281.864.863-.421 1.837-.394 2.713.036l170.765-295.774-21.772-12.57-177.365 307.205c.129.077.248.164.378.239z" fill="#ffb332"/><path d="m274.016 285.144c-13.566 2.097-16.81-6.757-17.584-11.287-.107-.628-.36-1.204-.717-1.702l-71.441 123.739c.128.077.248.164.378.239 7.763 4.482 17.213 4.804 25.281.864.863-.421 1.837-.395 2.713.036l64.242-111.27c-.827-.535-1.837-.779-2.872-.619z" fill="#ff9100"/><path d="m257.577 424.504c.622 8.957 5.626 16.98 13.389 21.462.13.075.265.134.396.207l177.365-307.204-21.772-12.57-170.765 295.774c.81.543 1.321 1.373 1.387 2.331z" fill="#ffb332"/><path d="m339.862 321.542c-11.421 2.2-15.229-5.367-16.497-10.428-.255-1.019-.874-1.838-1.675-2.39l-65.5 113.449c.81.543 1.321 1.374 1.388 2.332.622 8.957 5.626 16.98 13.389 21.462.13.075.265.134.396.207l71.614-124.039c-.889-.568-1.993-.809-3.115-.593z" fill="#ff9100"/><path d="m212.852 397.122c.925.534 1.496 1.433 1.568 2.466.621 8.957 5.626 16.98 13.388 21.462 7.763 4.482 17.213 4.804 25.281.864.93-.454 1.994-.409 2.92.125.067.039.117.092.18.134l170.765-295.774-43.544-25.14-170.764 295.774c.068.033.14.05.206.089z" fill="#ffdd40"/><path d="m318.361 308.079c-28.118 6.477-37.163-11.911-39.743-20.052-.306-.964-.933-1.749-1.731-2.265l-64.242 111.27c.068.034.14.051.207.089.925.534 1.496 1.433 1.568 2.466.621 8.957 5.626 16.98 13.389 21.462s17.213 4.804 25.281.864c.93-.454 1.994-.409 2.92.125.067.038.117.092.18.134l65.5-113.449c-.939-.645-2.129-.92-3.329-.644z" fill="#ffb332"/><path d="m175.696 461.243c8.12 1.709 16.11 4.69 23.678 9.059 7.567 4.369 14.144 9.798 19.684 15.976l42.9-30.859c3.871-2.097 7.085-5.226 9.286-9.038l1.019-1.765c-.131-.073-.267-.128-.398-.204-7.519-4.341-11.936-11.977-12.495-20.031-.113-1.636-1.03-2.965-2.281-3.763-1.378-.879-3.164-1.11-4.786-.318-16.019 7.824-34.854-3.029-36.089-20.836-.125-1.802-1.218-3.232-2.668-3.986-1.317-.685-2.926-.815-4.4-.095-7.254 3.543-16.076 3.536-23.594-.805-.131-.075-.247-.165-.375-.243l-1.019 1.765c-2.201 3.813-3.303 8.16-3.185 12.561z" fill="#fcf9eb"/><g fill="#fceca9"><path d="m207.456 440.306c5.291-19.633 15.958-21.263 22.698-20.046-7.595-3.756-13.282-11.282-13.942-20.797-.125-1.802-1.218-3.232-2.668-3.986-1.317-.684-2.926-.815-4.4-.095-7.253 3.543-16.076 3.536-23.594-.805-.131-.076-.247-.165-.376-.243l-1.019 1.766c-2.201 3.813-3.304 8.16-3.185 12.561l-5.275 52.582c8.031 1.691 15.934 4.63 23.427 8.921 2.144-7.378 4.962-17.344 8.334-29.858z"/><path d=""/></g><g><path d="m404.5 173.459c-1.388 0-2.794-.353-4.082-1.097l-43.543-25.14c-3.912-2.258-5.252-7.26-2.993-11.172 2.258-3.912 7.261-5.253 11.172-2.994l43.543 25.14c3.912 2.258 5.252 7.26 2.993 11.172-1.514 2.624-4.264 4.091-7.09 4.091z" fill="#fceca9"/></g><path d="m229.397 236.907h-175.673c-11.268 0-20.486 9.219-20.486 20.487v90.614c0 11.268 9.219 20.487 20.486 20.487h18.235c2.033 0 3.929 1.024 5.044 2.724l12.557 19.148c3.052 4.654 9.873 4.654 12.925 0l12.557-19.148c1.115-1.7 3.011-2.724 5.044-2.724h109.31c11.268 0 20.487-9.219 20.487-20.487v-90.614c.001-11.268-9.218-20.487-20.486-20.487z" fill="#ff4155"/><path d="m53.724 55.564h175.674c11.268 0 20.487 9.219 20.487 20.487v90.614c0 11.268-9.219 20.487-20.487 20.487h-18.235c-2.033 0-3.929 1.024-5.044 2.724l-12.557 19.148c-3.052 4.654-9.873 4.654-12.925 0l-12.557-19.148c-1.115-1.7-3.011-2.724-5.044-2.724h-109.312c-11.268 0-20.487-9.219-20.487-20.487v-90.615c0-11.267 9.219-20.486 20.487-20.486z" fill="#42c3fc"/><path d="m112.211 348.008v-90.614c0-11.268 9.219-20.487 20.487-20.487h-78.974c-11.268 0-20.487 9.219-20.487 20.487v90.614c0 11.268 9.219 20.487 20.487 20.487h18.235c2.033 0 3.929 1.024 5.044 2.724l12.557 19.148c3.052 4.654 9.874 4.654 12.925 0l12.557-19.148c1.115-1.7 3.011-2.724 5.044-2.724h12.61c-11.266-.001-20.485-9.22-20.485-20.487z" fill="#e80054"/><g><path d="m112.211 166.664v-90.614c0-11.268 9.219-20.487 20.487-20.487h-78.974c-11.268 0-20.487 9.219-20.487 20.487v90.614c0 11.268 9.219 20.487 20.487 20.487h78.974c-11.268 0-20.487-9.219-20.487-20.487z" fill="#1aa9e8"/></g><path d="m379.615 33.444c-3.634 1.201-6.862 3.672-8.927 7.247-4.463 7.73-1.815 17.615 5.916 22.078l85.114 49.141c-20.831-32.135-48.987-59.074-82.103-78.466z" fill="#e9efff"/><path d="m400.946 71.059c-.436-7.833 5.189-11.778 8.743-13.477.821-.392 1.526-.957 2.091-1.635-10.082-8.316-20.824-15.862-32.165-22.503-3.634 1.2-6.863 3.672-8.927 7.247-4.463 7.73-1.815 17.615 5.916 22.078l22.525 13.005c1.222-1.209 1.918-2.907 1.817-4.715z" fill="#d3dcfb"/><path d="m470.206 134.09c.877-1.52 1.47-3.124 1.813-4.752-3.621-6.749-7.552-13.306-11.769-19.658l-83.048-47.948c-7.73-4.463-17.615-1.815-22.078 5.916-4.463 7.73-1.815 17.615 5.916 22.078l87.087 50.28c7.732 4.463 17.616 1.814 22.079-5.916z" fill="#d3dcfb"/><path d="m377.203 61.732c-7.73-4.463-17.615-1.814-22.078 5.916s-1.815 17.615 5.916 22.078l19.793 11.427c.695-1.128 1.039-2.475.874-3.873-1.496-12.659 8.562-17.961 15.034-20.043 1.336-.43 2.431-1.291 3.17-2.394z" fill="#bec8f7"/><path d="m200.271 468.747c-7.801-4.504-16.033-7.567-24.394-9.314l-4.274 42.603c-.897 7.757 7.903 12.838 14.173 8.182l34.758-25.003c-5.693-6.367-12.462-11.965-20.263-16.468z" fill="#5f5f9b"/><path d="m194.456 485.716s1.864-5.844 5.178-17.32c-7.612-4.306-15.622-7.264-23.758-8.964l-4.274 42.603c-.897 7.757 7.903 12.838 14.172 8.182l13.862-9.971c-8.308-3.769-5.18-14.53-5.18-14.53z" fill="#47477f"/><g><path d="m136.56 280.226h-64.788c-4.517 0-8.179-3.662-8.179-8.179s3.662-8.179 8.179-8.179h64.789c4.517 0 8.179 3.662 8.179 8.179-.001 4.518-3.663 8.179-8.18 8.179z" fill="#fc95a9"/></g><g><path d="m211.349 310.879h-139.577c-4.517 0-8.179-3.662-8.179-8.179s3.662-8.179 8.179-8.179h139.578c4.517 0 8.179 3.662 8.179 8.179s-3.663 8.179-8.18 8.179z" fill="#ff7186"/></g><g><path d="m211.349 341.532h-139.577c-4.517 0-8.179-3.662-8.179-8.179s3.662-8.179 8.179-8.179h139.578c4.517 0 8.179 3.662 8.179 8.179s-3.663 8.179-8.18 8.179z" fill="#ff7186"/></g><g><path d="m211.349 98.883h-64.789c-4.517 0-8.179-3.662-8.179-8.179s3.662-8.179 8.179-8.179h64.789c4.517 0 8.179 3.662 8.179 8.179s-3.662 8.179-8.179 8.179z" fill="#b8f0ff"/></g><g><path d="m211.349 129.536h-139.577c-4.517 0-8.179-3.662-8.179-8.179s3.662-8.179 8.179-8.179h139.578c4.517 0 8.179 3.662 8.179 8.179s-3.663 8.179-8.18 8.179z" fill="#8ae1ff"/></g><g><path d="m211.349 160.189h-139.577c-4.517 0-8.179-3.662-8.179-8.179s3.662-8.179 8.179-8.179h139.578c4.517 0 8.179 3.662 8.179 8.179-.001 4.517-3.663 8.179-8.18 8.179z" fill="#8ae1ff"/></g><path d="m448.727 236.907c-27.271 46.039-114.246 194.382-114.246 194.382s-12.818 27.081 7.36 43.234c92.967-34.785 159.158-124.418 159.158-229.523 0-7.136-.313-14.198-.911-21.178-13.984-8.939-34.893-14.716-51.361 13.085z" fill="#47477f"/></g></svg>