<svg id="Layer_1" enable-background="new 0 0 68 68" height="512" viewBox="0 0 68 68" width="512" xmlns="http://www.w3.org/2000/svg"><g><path d="m59.1417732 26.9609718c0 4.3999023-3.2700195 8.0400391-7.5200195 8.6298828-.3898926.0498047-.7900391.0800781-1.1999512.0800781h-30.7199707c-5.8999023 0-10.6699219-4.7802734-10.6699219-10.6699219 0-5.1601563 3.6599121-9.45996 8.5200195-10.45996v-.3798828c0-1.9301758.4499512-3.75 1.25-5.3701172 1.9799805-4.0302734 6.119873-6.7900391 10.9099121-6.7900391.8000488 0 1.5800781.0800781 2.3300781.2299805 1.6999512.3198242 3.2700195 1 4.6298828 1.9599612 2.4699707 1.7202148 4.2700195 4.3300781 4.9299316 7.3701172.5302734-.300293 1.1000977-.5400391 1.7001953-.7099609.7099609-.2202148 1.4699707-.3300781 2.2600098-.3300781 4.4299316 0 8.0197754 3.5898438 8.0197754 8.0097647 0 .1000977 0 .2001953-.0097656.300293 3.2597657 1.2597653 5.5698243 4.4199216 5.5698243 8.1298825z" fill="#70c1f9"/><g fill="#fff" opacity=".2"><path d="m43.2919197 35.6709328h-15.4499512l-9.040039-26.8798819c1.9799805-4.0302734 6.119873-6.7900391 10.9099121-6.7900391.8000488 0 1.5800781.0800781 2.3300781.2299805z"/><path d="m51.6217537 35.5908546c-.3898926.0498047-.7900391.0800781-1.1999512.0800781h-3.1599121l-10.5900879-31.4799794c2.4699707 1.7202148 4.2700195 4.3300781 4.9299316 7.3701172.5302734-.300293 1.1000977-.5400391 1.7001953-.7099609z"/></g><path d="m50.8270226 17.3649406c-.5125084.4317226-1.7703819-.21171-2.7996979-1.4416161-1.0355682-1.224638-1.4544144-2.5744925-.9417877-3.0059137.5182419-.4309387 1.770237.2116976 2.8054543 1.442111 1.0296668 1.2241307 1.4488868 2.5679208.9360313 3.0054188z" fill="#fff" opacity=".2"/><g><path d="m34.8106689 47.97789v10.9098434h-1.4589233v-10.9098434c0-.3978691.3231964-.7293587.7295647-.7293587.4059639 0 .7293586.3314896.7293586.7293587z" fill="#4f5d99"/><g><g><g><path d="m53.9506989 47.289814v10.9514542c0 .4063683-.3316917.7293587-.7378578.7293587-.3978729 0-.7293625-.3229904-.7293625-.7293587v-10.2216874h-36.8045416v10.2216873c0 .4063683-.3314896.7293587-.7293596.7293587-.406167 0-.7293596-.3229904-.7293596-.7293587v-10.9514541c0-.4059639.3231926-.7293587.7293596-.7293587h18.4021683v-5.9101601c0-.3978729.3231964-.7293625.7295647-.7293625.4059639 0 .7293587.3314896.7293587.7293625v5.9101601h18.4021719c.4061661 0 .7378579.3233948.7378579.7293587z" fill="#4f5d99"/></g></g><g><path d="m40.2287827 46.1998711v2.0907326c0 .3510284-.282589.6336212-.6330681.6336212h-11.0323525c-.3504791 0-.63307-.2825928-.63307-.6336212v-2.0907326c0-.3504791.2825909-.6330681.63307-.6330681h11.0323524c.3504792 0 .6330682.2825889.6330682.6330681z" fill="#7bd681"/></g></g><path d="m15.678937 58.2412682c0 .4063683-.3314896.7293587-.7293596.7293587-.406167 0-.7293596-.3229904-.7293596-.7293587" fill="#4f5d99"/></g><g><path d="m45.5346603 26.9856987-3.0104561-.7952061c-.154129-.5031948-.3651123-.9980698-.6085892-1.4606533l1.5741692-2.6859531c.0974693-.170372.0731049-.3894806-.0729027-.5354862l-2.0529976-2.0529957c-.1460037-.1460056-.3651123-.1784954-.543808-.073103l-2.6859512 1.5662441c-.3163795-.1624489-.6408806-.316576-.9818268-.4382153-.1622505-.0649796-.3163757-.1137142-.4786263-.170372l-.7870865-3.0025311c-.0568581-.1945419-.2272301-.3326244-.4300919-.3326244h-2.9131851c-.2028618 0-.3813591.1380825-.4300919.3326244l-.097271.3653126-.1297607.5029964-.5600529 2.134222c-.5111198.1622505-.9980698.3651123-1.4685764.6085873l-2.6780281-1.5662441c-.178299-.1053925-.3974056-.0729027-.5436096.073103l-1.3225727 1.3227692-.7302264.7302266c-.146204.1460056-.1705704.3651142-.073101.5354862l1.5660458 2.6859531c-.243475.4625835-.4463387.9574585-.6004658 1.4687748l-3.0104542.7870846c-.1947422.0487347-.3326244.2272301-.3326244.4300938v2.9048634c0 .2111835.1378822.3815556.3326244.4302902l3.0104542.795208c.1541271.5029945.3569908.9980698.6085873 1.460453l-1.5741673 2.685955c-.0974693.170372-.073103.3976021.073101.5356827l2.0527992 2.0609207c.146204.1380844.3653107.1705704.5436096.0649796l2.6780281-1.5660439c.324501.170372.6490021.3163757.989748.4461403.1543274.0568542.3165779.1137123.4788284.1624451l.7870846 3.0104561c.0487328.1947403.2272301.3326225.4300919.3326225h2.9131851c.2028618 0 .3732338-.1378822.4300919-.3326225l.7870865-3.0104561c.511116-.1624451.9980698-.3653107 1.460453-.6085854l.0083199.0081215.3732376.2189102 1.6795616.9738998.6248322.3651123c.0487366.0324898.1055946.0487366.1624489.0649796.137886.0160484.2757683-.0324898.3813591-.1299591l2.0529976-2.0609207c.1460075-.1380806.170372-.3653107.0729027-.5356827l-1.5741692-2.685955c.2434769-.4623833.4544601-.9574585.6085892-1.460453l3.0104561-.795208c.1947403-.0487347.3328209-.2191067.3328209-.4302902v-2.9048634c-.0000001-.2028637-.1380807-.3813591-.332821-.4300938zm-11.5388221 7.5465431c-3.1239681 0-5.6639156-2.531826-5.6639156-5.6639194 0-3.1241684 2.5399475-5.6639175 5.6639156-5.6639175s5.6639175 2.5397491 5.6639175 5.6639175c0 3.1320934-2.5399475 5.6639194-5.6639175 5.6639194z" fill="#f14f4a"/></g><circle cx="33.996" cy="28.868" fill="#4f5d99" r="5.664"/><circle cx="33.996" cy="28.868" fill="#e9e9ff" r="4.573"/><g><path d="m60.599659 55.2866859v8.1347466c0 .4567947-.3700905.8190002-.8190041.8190002h-13.1271324c-.4489136 0-.8190041-.3622055-.8190041-.8190002v-9.4105453c0-.4567986.3700905-.8190041.8190041-.8190041h3.6774445c.4567947 0 .8190041.3622055.8190041.8190041v.4567947h8.6306839c.4489135 0 .819004.3698997.819004.819004z" fill="#f9ac00"/><path d="m60.599659 57.0452385v8.1347466c0 .4523239-.3666801.8190002-.8190041.8190002h-13.1271324c-.4523239 0-.8190041-.3666763-.8190041-.8190002v-8.1347466c0-.4523201.3666801-.8190002.8190041-.8190002h13.1271324c.4523239 0 .8190041.3666801.8190041.8190002z" fill="#fdc72e"/><g fill="#f9ac00"><path d="m49.4313545 64.0463028v.3942032c0 .0520859-.043148.0952301-.0952301.0952301h-1.9592018c-.0520782 0-.0952263-.0431442-.0952263-.0952301v-.3942032c0-.0536079.043148-.0952301.0952263-.0952301h1.9592018c.0520821 0 .0952301.0416222.0952301.0952301z"/><path d="m52.9183884 62.6627617v.394207c0 .0536079-.043148.0952263-.0952301.0952263h-5.4462357c-.0520782 0-.0952263-.0416183-.0952263-.0952263v-.394207c0-.0520821.043148-.0952301.0952263-.0952301h5.4462357c.052082 0 .0952301.043148.0952301.0952301z"/><path d="m52.9183884 64.0463028v.3942032c0 .0520859-.043148.0952301-.0952301.0952301h-2.5185852c-.0535698 0-.095192-.0431442-.095192-.0952301v-.3942032c0-.0536079.0416222-.0952301.095192-.0952301h2.5185852c.052082 0 .0952301.0416222.0952301.0952301z"/></g></g><g><path d="m41.3825684 55.2866859v8.1347466c0 .4567947-.3700905.8190002-.8190041.8190002h-13.1271305c-.4489136 0-.8190041-.3622055-.8190041-.8190002v-9.4105453c0-.4567986.3700905-.8190041.8190041-.8190041h3.6774426c.4567966 0 .8190041.3622055.8190041.8190041v.4567947h8.6306839c.4489135 0 .819004.3698997.819004.819004z" fill="#f9ac00"/><path d="m41.3825684 57.0452385v8.1347466c0 .4523239-.3666801.8190002-.8190041.8190002h-13.1271305c-.452322 0-.8190041-.3666763-.8190041-.8190002v-8.1347466c0-.4523201.3666821-.8190002.8190041-.8190002h13.1271305c.4523239 0 .8190041.3666801.8190041.8190002z" fill="#fdc72e"/><g fill="#f9ac00"><path d="m30.2142639 64.0463028v.3942032c0 .0520859-.043148.0952301-.0952301.0952301h-1.959198c-.0520821 0-.0952301-.0431442-.0952301-.0952301v-.3942032c0-.0536079.043148-.0952301.0952301-.0952301h1.959198c.0520821 0 .0952301.0416222.0952301.0952301z"/><path d="m33.7012978 62.6627617v.394207c0 .0536079-.0431442.0952263-.0952263.0952263h-5.4462357c-.0520821 0-.0952301-.0416183-.0952301-.0952263v-.394207c0-.0520821.043148-.0952301.0952301-.0952301h5.4462357c.052082 0 .0952263.043148.0952263.0952301z"/><path d="m33.7012978 64.0463028v.3942032c0 .0520859-.0431442.0952301-.0952263.0952301h-2.5185871c-.0535698 0-.095192-.0431442-.095192-.0952301v-.3942032c0-.0536079.0416222-.0952301.095192-.0952301h2.5185871c.052082 0 .0952263.0416222.0952263.0952301z"/></g></g><g><path d="m22.1654797 55.2866859v8.1347466c0 .4567947-.3700886.8190002-.8190041.8190002h-13.1271305c-.4489141 0-.8190036-.3622055-.8190036-.8190002v-9.4105453c0-.4567986.3700895-.8190041.8190036-.8190041h3.6774426c.4567966 0 .8190041.3622055.8190041.8190041v.4567947h8.6306839c.4489154 0 .819004.3698997.819004.819004z" fill="#f9ac00"/><path d="m22.1654797 57.0452385v8.1347466c0 .4523239-.3666801.8190002-.8190041.8190002h-13.1271305c-.4523234 0-.8190036-.3666763-.8190036-.8190002v-8.1347466c0-.4523201.3666801-.8190002.8190036-.8190002h13.1271305c.4523239 0 .8190041.3666801.8190041.8190002z" fill="#fdc72e"/><g fill="#f9ac00"><path d="m10.9971743 64.0463028v.3942032c0 .0520859-.0431471.0952301-.0952282.0952301h-1.9591999c-.0520821 0-.0952291-.0431442-.0952291-.0952301v-.3942032c0-.0536079.0431471-.0952301.0952291-.0952301h1.9591999c.0520811 0 .0952282.0416222.0952282.0952301z"/><path d="m14.48421 62.6627617v.394207c0 .0536079-.0431471.0952263-.0952282.0952263h-5.4462356c-.0520821 0-.0952291-.0416183-.0952291-.0952263v-.394207c0-.0520821.0431471-.0952301.0952291-.0952301h5.4462357c.052081 0 .0952281.043148.0952281.0952301z"/><path d="m14.48421 64.0463028v.3942032c0 .0520859-.0431471.0952301-.0952282.0952301h-2.5185862c-.0535707 0-.0951929-.0431442-.0951929-.0952301v-.3942032c0-.0536079.0416222-.0952301.0951929-.0952301h2.5185862c.0520811 0 .0952282.0416222.0952282.0952301z"/></g></g></g></svg>